<svg width="0" height="0" class="hidden">
  <symbol id="icon-logo" viewBox="0 0 34 32">
    <path d="M14.147 5.923c0.343-0.035 0.698 0 1.031 0.085 0.989 0.245 1.66 0.853 2.17 1.702 0.405-0.043 0.814-0.018 1.211 0.075 0.861 0.217 1.574 0.745 2.026 1.455l0.008 0.014c0.299 0.472 0.477 1.046 0.477 1.662 0 0.277-0.036 0.545-0.103 0.8l0.005-0.022c-0.283 1.069-0.962 1.626-1.887 2.159 0.026 0.657 0.016 1.317 0.018 1.973 0 0.416 0.028 0.849-0.013 1.261-0.011 0.174-0.063 0.335-0.146 0.474l0.003-0.005c-0.121 0.082-0.269 0.134-0.428 0.143l-0.002 0c-0.423 0.051-0.883 0.017-1.31 0.016l-2.516-0.009c-0.895 0.066-1.842 0.003-2.743 0.004-0.599 0-1.274 0.070-1.867 0.003-0.21-0.023-0.301-0.162-0.416-0.318-0.075-1.179-0.011-2.397-0.011-3.58-0.493-0.252-0.912-0.561-1.255-0.995-0.415-0.522-0.665-1.19-0.665-1.916 0-0.139 0.009-0.275 0.027-0.409l-0.002 0.016c0.139-0.897 0.618-1.662 1.3-2.172l0.009-0.006c0.532-0.402 1.204-0.645 1.933-0.645 0.164 0 0.324 0.012 0.481 0.036l-0.018-0.002c0.121-0.209 0.241-0.418 0.39-0.608 0.576-0.735 1.378-1.077 2.292-1.193zM14.195 7.372c-0.561 0.11-1.045 0.31-1.385 0.796-0.189 0.272-0.363 1.054-0.598 1.173-0.314 0.037-0.64-0.107-0.944-0.173-0.608-0.132-1.297 0.109-1.675 0.597-0.309 0.403-0.455 0.958-0.373 1.457 0.076 0.451 0.352 0.83 0.731 1.089 0.412 0.283 0.871 0.338 1.156 0.782 0.053 1.027 0.015 2.073 0.016 3.102 0.73-0.006 1.594-0.009 2.458-0.009 0.4 0 0.8 0.001 1.2 0.002l-0.062-0 2.929-0.006c0-0.522-0.113-3.117 0.131-3.371 0.114-0.121 0.377-0.193 0.531-0.253 0.698-0.272 1.209-0.742 1.271-1.516 0.043-0.512-0.124-0.971-0.468-1.351-0.296-0.329-0.717-0.541-1.188-0.559l-0.003-0c-0.413-0.023-1.262 0.366-1.522 0.076-0.126-0.141-0.176-0.384-0.241-0.561-0.263-0.731-0.816-1.154-1.593-1.255-0.094-0.013-0.202-0.020-0.312-0.020-0.021 0-0.042 0-0.063 0.001l0.003-0zM27.979 1.398c0.26-0.018 0.572-0.015 0.777 0.171 0.192 0.175 0.201 0.454 0.137 0.687-0.154 0.563-0.649 1.237-0.945 1.749-0.477 0.82-0.921 1.662-1.382 2.491-0.286 0.512-0.633 1.037-0.861 1.573-0.075 0.157-0.119 0.342-0.119 0.536v0c0.007 0.162 0.064 0.284 0.19 0.39 0.177 0.151 0.411 0.269 0.651 0.237 0.16-0.021 0.288-0.105 0.387-0.227 0.339-0.421 0.54-1.008 0.787-1.485l1.707-3.295c0.203-0.394 0.381-0.877 0.663-1.217 0.149-0.181 0.289-0.267 0.529-0.286 0.189-0.016 0.373 0.032 0.518 0.156 0.14 0.122 0.227 0.3 0.227 0.499 0 0.035-0.003 0.070-0.008 0.104l0-0.004c-0.065 0.423-0.443 0.937-0.644 1.323l-1.549 3.039c-0.276 0.548-0.601 1.108-0.823 1.679-0.051 0.133-0.102 0.282-0.083 0.427 0.021 0.169 0.148 0.317 0.285 0.412 0.153 0.107 0.361 0.179 0.548 0.138 0.217-0.048 0.368-0.204 0.489-0.378 0.276-0.395 0.459-0.913 0.661-1.349l1.323-2.805c0.251-0.531 0.478-1.156 0.811-1.641 0.118-0.174 0.247-0.313 0.467-0.346 0.223-0.034 0.448 0.059 0.617 0.198 0.141 0.116 0.245 0.253 0.251 0.437 0.017 0.478-0.859 2.133-1.097 2.665l-0.939 2.096c-0.459 1.034-0.853 2.069-1.629 2.924-0.764 0.843-1.634 1.199-2.684 1.574-0.221 0.080-0.56 0.158-0.748 0.292-0.371 0.265-0.629 0.755-0.848 1.141-0.167 0.299-0.381 0.621-0.485 0.946-0.155 0.479-0.052 1.942-0.052 2.521l-0.001 7.462 0.003 2.282c0.001 0.447 0.029 0.914-0.021 1.358-0.016 0.179-0.090 0.338-0.203 0.461l0-0.001c-0.364 0.352-1.703 0.228-2.218 0.225l-3.504-0.004c0.203-0.535 0.451-1.062 0.715-1.571 0.454-0.047 0.922-0.027 1.379-0.028l2.261 0.001v-9.751c-0.293 0.693-0.666 1.372-1.003 2.046 0.382-0.943-0.212 0.235-0.8 1.417l-0.979 2.175c-1.541 3.298-2.261 4.73-2.992 6.156l0.834-1.791c-0.305 0.606-0.576 1.244-0.924 1.827-0.136 0.244-0.32 0.445-0.54 0.598l-0.006 0.004c-0.32 0.205-0.709 0.277-1.083 0.203-0.374-0.079-0.685-0.303-0.877-0.61l-0.003-0.006c-0.126-0.193-0.201-0.429-0.201-0.682 0-0.134 0.021-0.263 0.059-0.384l-0.002 0.009c0.18-0.599 0.559-1.178 0.859-1.726l1.425-2.608c1.726-3.159 3.467-6.317 5.135-9.506 0.395-0.751 1.285-2.176 1.5-2.883 0.234-0.771-0.257-1.694-0.401-2.451-0.054-0.261-0.085-0.561-0.085-0.869 0-0.719 0.169-1.398 0.47-2l-0.012 0.026c0.228-0.449 0.502-0.879 0.757-1.314l1.315-2.272 1.062-1.842c0.21-0.363 0.41-0.754 0.663-1.088 0.080-0.095 0.176-0.174 0.284-0.232l0.005-0.002z"></path>
    <path d="M4.089 0.033c1.218-0.064 2.464-0.010 3.685-0.009h13.355c1.030 0 2.101-0.059 3.129 0.006 0.21 0.013 0.448 0.071 0.608 0.217 0.139 0.128 0.198 0.351 0.226 0.528 0.053 0.362 0.021 0.757 0.021 1.123l-0.010 2.077c-0.508 0.817-1.065 1.612-1.6 2.414 0.048-0.538 0.015-1.098 0.015-1.638v-3.043c-6.092 0.005-12.192 0.061-18.283-0.003-0.062 2.492-0.005 4.999-0.005 7.493l0.003 13.782 10.753-0.007c0.47-0.001 0.971-0.034 1.438 0.025-0.173 0.537-0.502 1.075-0.758 1.581l-11.012-0.019c-0.58 0-1.184-0.027-1.76 0.058-0.518 0.074-0.977 0.282-1.355 0.587l0.005-0.004c-0.474 0.379-0.818 0.926-0.868 1.534-0.043 0.534 0.169 1.051 0.516 1.455 0.326 0.379 0.829 0.666 1.323 0.758 0.725 0.137 1.799 0.041 2.562 0.043l5.178 0.004c0.963 0 1.943-0.039 2.903 0.030-0.171 0.498-0.326 1.038-0.423 1.554-0.868-0.077-1.792-0.014-2.669-0.014l-5.185-0.001c-0.902 0.002-1.931 0.106-2.811-0.083-0.619-0.132-1.199-0.454-1.682-0.851-0.78-0.64-1.27-1.627-1.35-2.62-0.045-0.555-0.012-1.131-0.011-1.686l0.002-2.702v-9.344l-0.002-6.479c0-0.833-0.079-2.299 0.035-3.085 0.107-0.781 0.441-1.513 0.963-2.109 0.755-0.879 1.832-1.463 3.046-1.569l0.017-0.001zM3.605 1.776c-0.858 0.348-1.487 0.784-1.853 1.653-0.126 0.301-0.16 0.672-0.171 0.994-0.053 1.586-0.003 3.19-0.002 4.779v9.167l0.001 4.064c0 0.459-0.085 1.088 0.016 1.525l0.037 0.014 0.057-0.037c0.646-0.478 1.195-0.739 1.989-0.905-0.062-2.266-0.009-4.548-0.005-6.815 0.002-2.547-0.043-5.1-0.013-7.648 0.010-0.943 0.016-2.058 0.016-3.173 0-0.642-0.002-1.284-0.006-1.925l0 0.099c0-0.401 0.066-1.446-0.013-1.776z"></path>
  </symbol>
  <symbol id="icon-filter" viewBox="0 0 32 32">
<path stroke-linejoin="miter" stroke-linecap="butt" stroke-miterlimit="4" stroke-width="1" d="M8.908 7.5h14.184c1.054 0 1.908 0.854 1.908 1.908 0 0.487-0.186 0.956-0.521 1.31l-6.402 6.782v4.817c0 1.474-1.54 2.441-2.868 1.802l-0.154-0.074c-0.692-0.333-1.132-1.034-1.132-1.802v-4.743l-6.402-6.782c-0.334-0.354-0.521-0.823-0.521-1.31 0-1.054 0.854-1.908 1.908-1.908z"></path>
</symbol>
<symbol id="icon-exit" viewBox="0 0 32 32">
<path stroke-linejoin="round" stroke-linecap="round" stroke-miterlimit="4" stroke-width="1" d="M7 7l9 9M16 16l-9 9M16 16l9 9M16 16l9-9"></path>
</symbol>
<symbol id="icon-showPassword" viewBox="0 0 32 32">
<path stroke-linejoin="miter" stroke-linecap="round" stroke-miterlimit="4" stroke-width="1" d="M15.654 11.909c-4.779 0-8.654 4.621-8.654 5.795s3.874 5.796 8.654 5.796c4.779 0 8.654-4.621 8.654-5.796s-3.875-5.795-8.654-5.795zM15.654 11.909c-2.103 0-3.808 1.679-3.808 3.75s1.705 3.75 3.808 3.75 3.808-1.679 3.808-3.75c0-2.071-1.705-3.75-3.808-3.75zM25 11.909c-2.636-2.166-5.713-3.409-9-3.409s-6.364 1.243-9 3.409"></path>
</symbol>
<symbol id="icon-hidePassword" viewBox="0 0 32 32">
<path stroke-linejoin="miter" stroke-linecap="round" stroke-miterlimit="4" stroke-width="1" d="M19.214 22.65c-1.086 0.504-2.291 0.832-3.56 0.832-4.779 0-8.654-4.655-8.654-5.838 0-0.67 1.245-2.456 3.194-3.878M23.269 19.516c0.662-0.797 1.038-1.502 1.038-1.871 0-1.183-3.874-5.838-8.654-5.838 2.103 0 3.808 1.691 3.808 3.777M15.654 19.362c-2.103 0-3.808-1.691-3.808-3.777M25 11.807c-2.636-2.181-5.713-3.434-9-3.434-1.185 0-2.342 0.163-3.462 0.473M7 11.807c0.244-0.202 0.492-0.396 0.744-0.582M7 7l16.714 16.875"></path>
</symbol>
<symbol id="icon-menu" viewBox="0 0 32 32">
<path stroke-linejoin="miter" stroke-linecap="round" stroke-miterlimit="4" stroke-width="1" d="M7.5 9.5h17M7.5 21.5h17M7.5 15.5h17"></path>
</symbol>
<symbol id="icon-delete" viewBox="0 0 32 32">
<path stroke-linejoin="round" stroke-linecap="round" stroke-miterlimit="4" stroke-width="1" d="M16 21.846v-8.769M6.5 9.423h2.192M25.5 9.423h-2.192M19.654 9.423h-7.308M19.654 9.423v-1.462c0-0.807-0.654-1.462-1.462-1.462h-4.385c-0.807 0-1.462 0.654-1.462 1.462v1.462M19.654 9.423h3.654M12.346 9.423h-3.654M23.308 9.423v13.154c0 1.614-1.309 2.923-2.923 2.923h-8.769c-1.614 0-2.923-1.309-2.923-2.923v-13.154"></path>
</symbol>
<symbol id="icon-placeholder" viewBox="0 0 32 32">
<path d="M6.5 16.524v0zM6.5 24.044v0zM24.038 25.5v0zM7.962 25.5v0zM25.5 16.524v0zM25.5 24.044v0zM24.727 14.55v0zM18.15 7.439v0zM13.85 7.439v0zM7.273 14.55v0zM13.077 18.219v0zM13.077 24.772v0zM18.192 25.5v0zM13.808 25.5v0zM18.923 18.22v0zM18.923 24.772v0zM18.192 17.491v0zM13.808 17.491v0zM6 16.524v7.52h1v-7.52h-1zM24.038 25h-16.077v1h16.077v-1zM25 16.524v7.52h1v-7.52h-1zM25.094 14.211l-6.577-7.112-0.734 0.679 6.577 7.112 0.734-0.679zM13.483 7.099l-6.577 7.112 0.734 0.679 6.577-7.112-0.734-0.679zM18.517 7.099c-1.356-1.466-3.678-1.466-5.034 0l0.734 0.679c0.96-1.038 2.605-1.038 3.565 0l0.734-0.679zM26 16.524c0-0.857-0.324-1.683-0.906-2.313l-0.734 0.679c0.412 0.446 0.64 1.029 0.64 1.634h1zM7 16.524c0-0.605 0.228-1.188 0.64-1.634l-0.734-0.679c-0.583 0.63-0.906 1.456-0.906 2.313h1zM6 24.044c0 1.082 0.88 1.956 1.962 1.956v-1c-0.533 0-0.962-0.43-0.962-0.956h-1zM24.038 26c1.081 0 1.962-0.874 1.962-1.956h-1c0 0.526-0.429 0.956-0.962 0.956v1zM12.577 18.219v6.553h1v-6.553h-1zM18.192 25h-4.385v1h4.385v-1zM18.423 18.22v6.552h1v-6.552h-1zM18.192 16.991h-4.385v1h4.385v-1zM19.423 18.22c0-0.68-0.553-1.228-1.231-1.228v1c0.129 0 0.231 0.104 0.231 0.228h1zM13.577 18.219c0-0.124 0.102-0.228 0.231-0.228v-1c-0.678 0-1.231 0.548-1.231 1.228h1zM12.577 24.772c0 0.68 0.553 1.228 1.231 1.228v-1c-0.129 0-0.231-0.104-0.231-0.228h-1zM18.192 26c0.678 0 1.231-0.548 1.231-1.228h-1c0 0.124-0.102 0.228-0.231 0.228v1z"></path>
</symbol>
<symbol id="icon-logOut" viewBox="0 0 32 32">
<path stroke-linejoin="round" stroke-linecap="round" stroke-miterlimit="4" stroke-width="1" d="M13.077 6.5h-3.654c-1.614 0-2.923 1.309-2.923 2.923v13.154c0 1.614 1.309 2.923 2.923 2.923h3.654M11.5 16h14.615M21.731 11.615l4.385 4.385-4.385 4.385"></path>
</symbol>
<symbol id="icon-unFilter" viewBox="0 0 32 32">
<path stroke-linejoin="miter" stroke-linecap="round" stroke-miterlimit="4" stroke-width="1" d="M7.905 12.147l5.636 5.756v5.027c0 0.631 0.298 1.225 0.804 1.603l0.11 0.082c1.319 0.984 3.196 0.043 3.196-1.603v-1.089M10.738 7l11.787 0.052c1.092 0.005 1.975 0.892 1.975 1.984 0 0.456-0.157 0.898-0.445 1.252l-4.412 5.422M7.5 7.792l15.381 14.253"></path>
</symbol>
<symbol id="icon-clock" viewBox="0 0 32 32">
<path stroke-linejoin="round" stroke-linecap="round" stroke-miterlimit="4" stroke-width="1" d="M16 10.154v6.577l4.385 3.654M25.5 16c0 5.247-4.253 9.5-9.5 9.5s-9.5-4.253-9.5-9.5c0-5.247 4.253-9.5 9.5-9.5s9.5 4.253 9.5 9.5z"></path>
</symbol>
<symbol id="icon-arrowsright" viewBox="0 0 32 32">
<path d="M6 15.504c-0.276 0-0.5 0.224-0.5 0.5s0.224 0.5 0.5 0.5l-0-1zM25.996 16l0.354 0.354c0.195-0.195 0.195-0.512 0-0.707l-0.354 0.354zM20.966 10.261c-0.195-0.195-0.512-0.195-0.707 0s-0.195 0.512 0 0.707l0.707-0.707zM20.259 21.032c-0.195 0.195-0.195 0.512 0 0.707s0.512 0.195 0.707 0l-0.707-0.707zM6 16.504l19.996-0.004-0-1-19.996 0.004 0 1zM20.259 10.968l5.384 5.386 0.707-0.707-5.384-5.386-0.707 0.707zM25.643 15.646l-5.384 5.386 0.707 0.707 5.384-5.386-0.707-0.707z"></path>
</symbol>
<symbol id="icon-arrowsleft" viewBox="0 0 32 32">
<path d="M25.996 16.5c0.276 0 0.5-0.224 0.5-0.5s-0.224-0.5-0.5-0.5l0 1zM6 16.004l-0.354-0.354c-0.195 0.195-0.195 0.512 0 0.707l0.354-0.354zM11.030 21.743c0.195 0.195 0.512 0.195 0.707 0s0.195-0.512 0-0.707l-0.707 0.707zM11.737 10.972c0.195-0.195 0.195-0.512 0-0.707s-0.512-0.195-0.707 0l0.707 0.707zM25.996 15.5l-19.996 0.004 0 1 19.996-0.004-0-1zM11.737 21.036l-5.384-5.386-0.707 0.707 5.384 5.386 0.707-0.707zM6.353 16.357l5.384-5.386-0.707-0.707-5.384 5.386 0.707 0.707z"></path>
</symbol>
<symbol id="icon-save" viewBox="0 0 32 32">
<path stroke-linejoin="round" stroke-linecap="round" stroke-miterlimit="4" stroke-width="1" d="M15.996 4.5c2.033 0 3.864 0.233 5.177 0.463 1.168 0.205 2.090 1.002 2.388 2.118 0.471 1.764 1.012 4.734 0.932 8.909-0.089 4.623-0.845 7.785-1.48 9.652-0.131 0.385-0.413 0.586-0.727 0.636-0.325 0.051-0.714-0.060-1.023-0.377-0.795-0.816-1.781-1.778-2.702-2.539-0.46-0.38-0.916-0.72-1.331-0.967-0.395-0.235-0.831-0.433-1.231-0.434-0.394 0-0.849 0.195-1.273 0.427-0.448 0.245-0.95 0.583-1.466 0.963-1.033 0.762-2.161 1.725-3.076 2.541-0.343 0.306-0.754 0.382-1.087 0.296-0.324-0.084-0.599-0.328-0.693-0.746-0.429-1.904-0.9-5.003-0.9-9.442 0-4.364 0.511-7.273 0.952-8.971 0.281-1.083 1.174-1.855 2.313-2.057 1.316-0.233 3.17-0.473 5.23-0.473z"></path>
</symbol>
<symbol id="icon-Media" viewBox="0 0 38 32">
<path stroke-linejoin="miter" stroke-linecap="butt" stroke-miterlimit="4" stroke-width="0.3902" d="M26.149 18.375c0 3.347-3.228 6.060-7.209 6.060s-7.209-2.713-7.209-6.060c0-3.347 3.228-6.060 7.209-6.060s7.209 2.713 7.209 6.060z"></path>
<path stroke-linejoin="miter" stroke-linecap="butt" stroke-miterlimit="4" stroke-width="0.3902" d="M0.195 26.732v-14.77c0-2.482 2.394-4.494 5.347-4.494 2.025 0 3.877-0.962 4.782-2.484l1.212-2.037c1.003-1.686 3.052-2.75 5.294-2.75h4.218c2.242 0 4.292 1.065 5.294 2.75l1.212 2.037c0.906 1.523 2.757 2.484 4.782 2.484 2.953 0 5.347 2.012 5.347 4.494v14.77c0 2.748-2.65 4.976-5.919 4.976h-25.65c-3.269 0-5.919-2.228-5.919-4.976z"></path>
</symbol>
</svg>
