<svg xmlns="http://www.w3.org/2000/svg" style="display:none">
  <symbol id="icon-menu" viewBox="0 0 24 24" fill="none" stroke="currentColor" stroke-width="2" stroke-linecap="round" stroke-linejoin="round">
    <path d="M3 6h18M3 12h18M3 18h18" />
  </symbol>
  <symbol id="icon-close" viewBox="0 0 24 24" fill="none" stroke="currentColor" stroke-width="2" stroke-linecap="round" stroke-linejoin="round">
    <path d="M6 6l12 12M18 6L6 18" />
  </symbol>
  <symbol id="icon-search" viewBox="0 0 24 24" fill="none" stroke="currentColor" stroke-width="2" stroke-linecap="round" stroke-linejoin="round">
    <circle cx="11" cy="11" r="7" />
    <path d="M21 21l-4.3-4.3" />
  </symbol>
  <symbol id="icon-eye" viewBox="0 0 24 24" fill="none" stroke="currentColor" stroke-width="2" stroke-linecap="round" stroke-linejoin="round">
    <path d="M1 12s4-7 11-7 11 7 11 7-4 7-11 7S1 12 1 12z" />
    <circle cx="12" cy="12" r="3" />
  </symbol>
  <symbol id="icon-eye-off" viewBox="0 0 24 24" fill="none" stroke="currentColor" stroke-width="2" stroke-linecap="round" stroke-linejoin="round">
    <path d="M9.9 4.2A11 11 0 0 1 12 4c7 0 11 7 11 7a18 18 0 0 1-3 3.9M6.6 6.6A18 18 0 0 0 1 11s4 7 11 7a11 11 0 0 0 4.4-.9" />
    <path d="M9.9 9.9a3 3 0 0 0 4.2 4.2" />
    <path d="M1 1l22 22" />
  </symbol>
  <symbol id="icon-logout" viewBox="0 0 24 24" fill="none" stroke="currentColor" stroke-width="2" stroke-linecap="round" stroke-linejoin="round">
    <path d="M9 21H5a2 2 0 0 1-2-2V5a2 2 0 0 1 2-2h4" />
    <path d="M16 17l5-5-5-5" />
    <path d="M21 12H9" />
  </symbol>
  <symbol id="icon-user" viewBox="0 0 24 24" fill="none" stroke="currentColor" stroke-width="2" stroke-linecap="round" stroke-linejoin="round">
    <path d="M20 21v-2a4 4 0 0 0-4-4H8a4 4 0 0 0-4 4v2" />
    <circle cx="12" cy="7" r="4" />
  </symbol>
  <symbol id="icon-plus" viewBox="0 0 24 24" fill="none" stroke="currentColor" stroke-width="2" stroke-linecap="round" stroke-linejoin="round">
    <path d="M12 5v14M5 12h14" />
  </symbol>
  <symbol id="icon-arrow-up-right" viewBox="0 0 24 24" fill="none" stroke="currentColor" stroke-width="2" stroke-linecap="round" stroke-linejoin="round">
    <path d="M7 17L17 7" />
    <path d="M7 7h10v10" />
  </symbol>
  <symbol id="icon-arrow-left" viewBox="0 0 24 24" fill="none" stroke="currentColor" stroke-width="2" stroke-linecap="round" stroke-linejoin="round">
    <path d="M19 12H5" />
    <path d="M12 19l-7-7 7-7" />
  </symbol>
  <symbol id="icon-chevron-down" viewBox="0 0 24 24" fill="none" stroke="currentColor" stroke-width="2" stroke-linecap="round" stroke-linejoin="round">
    <path d="M6 9l6 6 6-6" />
  </symbol>
  <symbol id="icon-heart" viewBox="0 0 24 24" fill="none" stroke="currentColor" stroke-width="2" stroke-linecap="round" stroke-linejoin="round">
    <path d="M20.8 4.6a5.5 5.5 0 0 0-7.8 0L12 5.7l-1-1.1a5.5 5.5 0 1 0-7.8 7.8l1 1L12 21l7.8-7.8 1-1a5.5 5.5 0 0 0 0-7.6z" />
  </symbol>
  <symbol id="icon-bookmark" viewBox="0 0 24 24" fill="none" stroke="currentColor" stroke-width="2" stroke-linecap="round" stroke-linejoin="round">
    <path d="M19 21l-7-5-7 5V5a2 2 0 0 1 2-2h10a2 2 0 0 1 2 2z" />
  </symbol>
  <symbol id="icon-clock" viewBox="0 0 24 24" fill="none" stroke="currentColor" stroke-width="2" stroke-linecap="round" stroke-linejoin="round">
    <circle cx="12" cy="12" r="9" />
    <path d="M12 7v5l3 3" />
  </symbol>
  <symbol id="icon-flame" viewBox="0 0 24 24" fill="none" stroke="currentColor" stroke-width="2" stroke-linecap="round" stroke-linejoin="round">
    <path d="M12 2s5 4 5 9a5 5 0 0 1-10 0c0-1.7.8-2.9 1.4-3.6.4 1.4 1.6 1.9 1.6 1.9-.8-2 2-7.3 2-7.3z" />
  </symbol>
  <symbol id="icon-trash" viewBox="0 0 24 24" fill="none" stroke="currentColor" stroke-width="2" stroke-linecap="round" stroke-linejoin="round">
    <path d="M3 6h18M8 6V4a2 2 0 0 1 2-2h4a2 2 0 0 1 2 2v2m2 0v14a2 2 0 0 1-2 2H7a2 2 0 0 1-2-2V6" />
  </symbol>
  <symbol id="icon-facebook" viewBox="0 0 24 24" fill="currentColor">
    <path d="M22 12a10 10 0 1 0-11.6 9.9v-7H7.9V12h2.5V9.8c0-2.5 1.5-3.9 3.8-3.9 1.1 0 2.2.2 2.2.2v2.5h-1.2c-1.2 0-1.6.8-1.6 1.6V12h2.7l-.4 2.9h-2.3v7A10 10 0 0 0 22 12z" />
  </symbol>
  <symbol id="icon-instagram" viewBox="0 0 24 24" fill="none" stroke="currentColor" stroke-width="2" stroke-linecap="round" stroke-linejoin="round">
    <rect x="3" y="3" width="18" height="18" rx="5" />
    <circle cx="12" cy="12" r="4" />
    <path d="M17.5 6.5h.01" />
  </symbol>
  <symbol id="icon-youtube" viewBox="0 0 24 24" fill="currentColor">
    <path d="M23 7.5a3 3 0 0 0-2.1-2.1C19 4.8 12 4.8 12 4.8s-7 0-8.9.6A3 3 0 0 0 1 7.5 31 31 0 0 0 .5 12 31 31 0 0 0 1 16.5a3 3 0 0 0 2.1 2.1c1.9.6 8.9.6 8.9.6s7 0 8.9-.6a3 3 0 0 0 2.1-2.1 31 31 0 0 0 .5-4.5 31 31 0 0 0-.5-4.5zM9.8 15.3V8.7l5.7 3.3z" />
  </symbol>
</svg>
